<svg xmlns="http://www.w3.org/2000/svg" viewBox="0 0 100 100" width="100" height="100">
  <defs>
    <linearGradient id="bg" x1="0" y1="0" x2="1" y2="1">
      <stop offset="0" stop-color="#3b1378"/>
      <stop offset="1" stop-color="#1a0740"/>
    </linearGradient>
  </defs>
  <rect x="0" y="0" width="100" height="100" rx="22" fill="url(#bg)"/>
  <rect x="18" y="18" width="8" height="8" fill="#fff"/><rect x="34" y="18" width="8" height="8" fill="#fff"/><rect x="42" y="18" width="8" height="8" fill="#fff"/><rect x="50" y="18" width="8" height="8" fill="#fff"/><rect x="58" y="18" width="8" height="8" fill="#fff"/><rect x="66" y="18" width="8" height="8" fill="#fff"/><rect x="74" y="18" width="8" height="8" fill="#fff"/><rect x="82" y="18" width="8" height="8" fill="#fff"/><rect x="34" y="26" width="8" height="8" fill="#fff"/><rect x="42" y="26" width="8" height="8" fill="#fff"/><rect x="74" y="26" width="8" height="8" fill="#fff"/><rect x="82" y="26" width="8" height="8" fill="#fff"/><rect x="34" y="34" width="8" height="8" fill="#fff"/><rect x="42" y="34" width="8" height="8" fill="#fff"/><rect x="58" y="34" width="8" height="8" fill="#fff"/><rect x="74" y="34" width="8" height="8" fill="#fff"/><rect x="82" y="34" width="8" height="8" fill="#fff"/><rect x="34" y="42" width="8" height="8" fill="#fff"/><rect x="42" y="42" width="8" height="8" fill="#fff"/><rect x="58" y="42" width="8" height="8" fill="#fff"/><rect x="74" y="42" width="8" height="8" fill="#fff"/><rect x="82" y="42" width="8" height="8" fill="#fff"/><rect x="34" y="50" width="8" height="8" fill="#fff"/><rect x="42" y="50" width="8" height="8" fill="#fff"/><rect x="74" y="50" width="8" height="8" fill="#fff"/><rect x="82" y="50" width="8" height="8" fill="#fff"/><rect x="34" y="58" width="8" height="8" fill="#fff"/><rect x="42" y="58" width="8" height="8" fill="#fff"/><rect x="74" y="58" width="8" height="8" fill="#fff"/><rect x="82" y="58" width="8" height="8" fill="#fff"/><rect x="34" y="66" width="8" height="8" fill="#fff"/><rect x="42" y="66" width="8" height="8" fill="#fff"/><rect x="74" y="66" width="8" height="8" fill="#fff"/><rect x="82" y="66" width="8" height="8" fill="#fff"/><rect x="34" y="74" width="8" height="8" fill="#fff"/><rect x="42" y="74" width="8" height="8" fill="#fff"/><rect x="74" y="74" width="8" height="8" fill="#fff"/><rect x="82" y="74" width="8" height="8" fill="#fff"/>
</svg>
