<svg xmlns="http://www.w3.org/2000/svg" viewBox="0 0 100 100" width="100" height="100">
  <defs>
    <linearGradient id="bg" x1="0" y1="0" x2="1" y2="1">
      <stop offset="0" stop-color="#3b1378"/>
      <stop offset="1" stop-color="#1a0740"/>
    </linearGradient>
  </defs>
  <rect x="0" y="0" width="100" height="100" rx="22" fill="url(#bg)"/>
  <rect x="22" y="18" width="8" height="8" fill="#fff"/><rect x="38" y="18" width="8" height="8" fill="#fff"/><rect x="46" y="18" width="8" height="8" fill="#fff"/><rect x="54" y="18" width="8" height="8" fill="#fff"/><rect x="62" y="18" width="8" height="8" fill="#fff"/><rect x="70" y="18" width="8" height="8" fill="#fff"/><rect x="78" y="18" width="8" height="8" fill="#fff"/><rect x="38" y="26" width="8" height="8" fill="#fff"/><rect x="46" y="26" width="8" height="8" fill="#fff"/><rect x="70" y="26" width="8" height="8" fill="#fff"/><rect x="78" y="26" width="8" height="8" fill="#fff"/><rect x="38" y="34" width="8" height="8" fill="#fff"/><rect x="46" y="34" width="8" height="8" fill="#fff"/><rect x="70" y="34" width="8" height="8" fill="#fff"/><rect x="78" y="34" width="8" height="8" fill="#fff"/><rect x="38" y="42" width="8" height="8" fill="#fff"/><rect x="46" y="42" width="8" height="8" fill="#fff"/><rect x="70" y="42" width="8" height="8" fill="#fff"/><rect x="78" y="42" width="8" height="8" fill="#fff"/><rect x="38" y="50" width="8" height="8" fill="#fff"/><rect x="46" y="50" width="8" height="8" fill="#fff"/><rect x="62" y="50" width="8" height="8" fill="#fff"/><rect x="70" y="50" width="8" height="8" fill="#fff"/><rect x="78" y="50" width="8" height="8" fill="#fff"/><rect x="38" y="58" width="8" height="8" fill="#fff"/><rect x="46" y="58" width="8" height="8" fill="#fff"/><rect x="70" y="58" width="8" height="8" fill="#fff"/><rect x="78" y="58" width="8" height="8" fill="#fff"/><rect x="38" y="66" width="8" height="8" fill="#fff"/><rect x="46" y="66" width="8" height="8" fill="#fff"/><rect x="70" y="66" width="8" height="8" fill="#fff"/><rect x="78" y="66" width="8" height="8" fill="#fff"/><rect x="38" y="74" width="8" height="8" fill="#fff"/><rect x="46" y="74" width="8" height="8" fill="#fff"/><rect x="70" y="74" width="8" height="8" fill="#fff"/><rect x="78" y="74" width="8" height="8" fill="#fff"/>
</svg>
